<svg width="95" height="32" viewBox="0 0 95 32" fill="none" xmlns="http://www.w3.org/2000/svg">
<path d="M41.0781 13V4.43359H42.8945V13H41.0781ZM52.1582 8.63477C52.1582 9.59961 51.9727 10.4062 51.6016 11.0547C51.2344 11.6992 50.7012 12.1855 50.002 12.5137C49.3027 12.8379 48.4609 13 47.4766 13H45.0508V4.43359H47.7402C48.6387 4.43359 49.418 4.59375 50.0781 4.91406C50.7383 5.23047 51.25 5.70117 51.6133 6.32617C51.9766 6.94727 52.1582 7.7168 52.1582 8.63477ZM50.2715 8.68164C50.2715 8.04883 50.1777 7.5293 49.9902 7.12305C49.8066 6.71289 49.5332 6.41016 49.1699 6.21484C48.8105 6.01953 48.3652 5.92188 47.834 5.92188H46.8672V11.5H47.6465C48.5332 11.5 49.1914 11.2637 49.6211 10.791C50.0547 10.3184 50.2715 9.61523 50.2715 8.68164ZM57.8125 13H56.002V8.04297C56.002 7.90625 56.0039 7.73828 56.0078 7.53906C56.0117 7.33594 56.0176 7.12891 56.0254 6.91797C56.0332 6.70312 56.041 6.50977 56.0488 6.33789C56.0059 6.38867 55.918 6.47656 55.7852 6.60156C55.6562 6.72266 55.5352 6.83203 55.4219 6.92969L54.4375 7.7207L53.5645 6.63086L56.3242 4.43359H57.8125V13ZM66.1914 13H60.2031V11.7402L62.3535 9.56641C62.7871 9.12109 63.1348 8.75 63.3965 8.45312C63.6621 8.15234 63.8535 7.87891 63.9707 7.63281C64.0918 7.38672 64.1523 7.12305 64.1523 6.8418C64.1523 6.50195 64.0566 6.24805 63.8652 6.08008C63.6777 5.9082 63.4258 5.82227 63.1094 5.82227C62.7773 5.82227 62.4551 5.89844 62.1426 6.05078C61.8301 6.20312 61.5039 6.41992 61.1641 6.70117L60.1797 5.53516C60.4258 5.32422 60.6855 5.125 60.959 4.9375C61.2363 4.75 61.5566 4.59961 61.9199 4.48633C62.2871 4.36914 62.7266 4.31055 63.2383 4.31055C63.8008 4.31055 64.2832 4.41211 64.6855 4.61523C65.0918 4.81836 65.4043 5.0957 65.623 5.44727C65.8418 5.79492 65.9512 6.18945 65.9512 6.63086C65.9512 7.10352 65.8574 7.53516 65.6699 7.92578C65.4824 8.31641 65.209 8.70312 64.8496 9.08594C64.4941 9.46875 64.0645 9.89258 63.5605 10.3574L62.459 11.3945V11.4766H66.1914V13ZM72.7246 6.34961C72.7246 6.74414 72.6426 7.08594 72.4785 7.375C72.3145 7.66406 72.0918 7.90039 71.8105 8.08398C71.5332 8.26758 71.2207 8.40234 70.873 8.48828V8.52344C71.5605 8.60938 72.082 8.82031 72.4375 9.15625C72.7969 9.49219 72.9766 9.94141 72.9766 10.5039C72.9766 11.0039 72.8535 11.4512 72.6074 11.8457C72.3652 12.2402 71.9902 12.5508 71.4824 12.7773C70.9746 13.0039 70.3203 13.1172 69.5195 13.1172C69.0469 13.1172 68.6055 13.0781 68.1953 13C67.7891 12.9258 67.4062 12.8105 67.0469 12.6543V11.1133C67.4141 11.3008 67.7988 11.4434 68.2012 11.541C68.6035 11.6348 68.9785 11.6816 69.3262 11.6816C69.9746 11.6816 70.4277 11.5703 70.6855 11.3477C70.9473 11.1211 71.0781 10.8047 71.0781 10.3984C71.0781 10.1602 71.0176 9.95898 70.8965 9.79492C70.7754 9.63086 70.5645 9.50586 70.2637 9.41992C69.9668 9.33398 69.5508 9.29102 69.0156 9.29102H68.3652V7.90234H69.0273C69.5547 7.90234 69.9551 7.85352 70.2285 7.75586C70.5059 7.6543 70.6934 7.51758 70.791 7.3457C70.8926 7.16992 70.9434 6.9707 70.9434 6.74805C70.9434 6.44336 70.8496 6.20508 70.6621 6.0332C70.4746 5.86133 70.1621 5.77539 69.7246 5.77539C69.4512 5.77539 69.2012 5.81055 68.9746 5.88086C68.752 5.94727 68.5508 6.0293 68.3711 6.12695C68.1914 6.2207 68.0332 6.3125 67.8965 6.40234L67.0586 5.1543C67.3945 4.91211 67.7871 4.71094 68.2363 4.55078C68.6895 4.39062 69.2285 4.31055 69.8535 4.31055C70.7363 4.31055 71.4355 4.48828 71.9512 4.84375C72.4668 5.19922 72.7246 5.70117 72.7246 6.34961ZM80.1191 11.2246H79.0879V13H77.3184V11.2246H73.6621V9.96484L77.418 4.43359H79.0879V9.81836H80.1191V11.2246ZM77.3184 9.81836V8.36523C77.3184 8.22852 77.3203 8.06641 77.3242 7.87891C77.332 7.69141 77.3398 7.50391 77.3477 7.31641C77.3555 7.12891 77.3633 6.96289 77.3711 6.81836C77.3828 6.66992 77.3906 6.56641 77.3945 6.50781H77.3477C77.2734 6.66797 77.1953 6.82422 77.1133 6.97656C77.0312 7.125 76.9355 7.28125 76.8262 7.44531L75.2559 9.81836H77.3184ZM83.9219 7.52734C84.4453 7.52734 84.9102 7.62695 85.3164 7.82617C85.7266 8.02539 86.0488 8.31836 86.2832 8.70508C86.5176 9.0918 86.6348 9.56836 86.6348 10.1348C86.6348 10.752 86.5059 11.2852 86.248 11.7344C85.9941 12.1797 85.6133 12.5215 85.1055 12.7598C84.6016 12.998 83.9727 13.1172 83.2188 13.1172C82.7695 13.1172 82.3457 13.0781 81.9473 13C81.5527 12.9258 81.207 12.8105 80.9102 12.6543V11.0898C81.207 11.2461 81.5625 11.3789 81.9766 11.4883C82.3945 11.5938 82.7871 11.6465 83.1543 11.6465C83.5137 11.6465 83.8164 11.5996 84.0625 11.5059C84.3086 11.4082 84.4941 11.2598 84.6191 11.0605C84.748 10.8574 84.8125 10.5996 84.8125 10.2871C84.8125 9.86914 84.6719 9.54883 84.3906 9.32617C84.1094 9.10352 83.6777 8.99219 83.0957 8.99219C82.873 8.99219 82.6406 9.01367 82.3984 9.05664C82.1602 9.09961 81.9609 9.14258 81.8008 9.18555L81.0801 8.79883L81.4023 4.43359H86.0488V5.96875H82.9902L82.832 7.65039C82.9648 7.62305 83.1094 7.5957 83.2656 7.56836C83.4219 7.54102 83.6406 7.52734 83.9219 7.52734ZM87.6133 9.36133C87.6133 8.86914 87.6484 8.38281 87.7188 7.90234C87.793 7.41797 87.9199 6.96289 88.0996 6.53711C88.2793 6.10742 88.5312 5.72852 88.8555 5.40039C89.1797 5.06836 89.5918 4.80859 90.0918 4.62109C90.5918 4.42969 91.1973 4.33398 91.9082 4.33398C92.0762 4.33398 92.2715 4.3418 92.4941 4.35742C92.7207 4.36914 92.9082 4.39062 93.0566 4.42188V5.86914C92.9004 5.83398 92.7324 5.80664 92.5527 5.78711C92.377 5.76367 92.2012 5.75195 92.0254 5.75195C91.3145 5.75195 90.7637 5.86523 90.373 6.0918C89.9863 6.31836 89.7129 6.63281 89.5527 7.03516C89.3965 7.43359 89.3047 7.89844 89.2773 8.42969H89.3535C89.4629 8.23828 89.5996 8.06836 89.7637 7.91992C89.9316 7.77148 90.1348 7.6543 90.373 7.56836C90.6113 7.47852 90.8906 7.43359 91.2109 7.43359C91.7109 7.43359 92.1445 7.54102 92.5117 7.75586C92.8789 7.9668 93.1621 8.27344 93.3613 8.67578C93.5605 9.07812 93.6602 9.56836 93.6602 10.1465C93.6602 10.7637 93.541 11.2949 93.3027 11.7402C93.0645 12.1855 92.7266 12.5273 92.2891 12.7656C91.8555 13 91.3398 13.1172 90.7422 13.1172C90.3047 13.1172 89.8965 13.043 89.5176 12.8945C89.1387 12.7422 88.8066 12.5117 88.5215 12.2031C88.2363 11.8945 88.0137 11.5059 87.8535 11.0371C87.6934 10.5645 87.6133 10.0059 87.6133 9.36133ZM90.707 11.6699C91.0625 11.6699 91.3516 11.5488 91.5742 11.3066C91.7969 11.0645 91.9082 10.6855 91.9082 10.1699C91.9082 9.75195 91.8105 9.42383 91.6152 9.18555C91.4238 8.94336 91.1328 8.82227 90.7422 8.82227C90.4766 8.82227 90.2422 8.88281 90.0391 9.00391C89.8398 9.12109 89.6855 9.27148 89.5762 9.45508C89.4668 9.63477 89.4121 9.82031 89.4121 10.0117C89.4121 10.2109 89.4395 10.4082 89.4941 10.6035C89.5488 10.7988 89.6309 10.9766 89.7402 11.1367C89.8496 11.2969 89.9844 11.4258 90.1445 11.5234C90.3086 11.6211 90.4961 11.6699 90.707 11.6699Z" fill="#22232B"/>
<path d="M46.252 24.7051C46.252 25.4004 46.1992 26.0215 46.0938 26.5684C45.9883 27.1152 45.8223 27.5781 45.5957 27.957C45.3691 28.3359 45.0762 28.625 44.7168 28.8242C44.3574 29.0195 43.9258 29.1172 43.4219 29.1172C42.7852 29.1172 42.2578 28.9434 41.8398 28.5957C41.4258 28.248 41.1152 27.7461 40.9082 27.0898C40.7051 26.4297 40.6035 25.6348 40.6035 24.7051C40.6035 23.791 40.6953 23.0059 40.8789 22.3496C41.0664 21.6895 41.3672 21.1836 41.7812 20.832C42.1953 20.4766 42.7422 20.2988 43.4219 20.2988C44.0664 20.2988 44.5977 20.4746 45.0156 20.8262C45.4336 21.1738 45.7441 21.6777 45.9473 22.3379C46.1504 22.9941 46.252 23.7832 46.252 24.7051ZM41.582 24.7051C41.582 25.502 41.6426 26.166 41.7637 26.6973C41.8848 27.2285 42.0801 27.627 42.3496 27.8926C42.623 28.1543 42.9805 28.2852 43.4219 28.2852C43.8633 28.2852 44.2188 28.1543 44.4883 27.8926C44.7617 27.6309 44.959 27.2344 45.0801 26.7031C45.2051 26.1719 45.2676 25.5059 45.2676 24.7051C45.2676 23.9199 45.207 23.2637 45.0859 22.7363C44.9648 22.2051 44.7695 21.8066 44.5 21.541C44.2305 21.2715 43.8711 21.1367 43.4219 21.1367C42.9727 21.1367 42.6133 21.2715 42.3438 21.541C42.0742 21.8066 41.8789 22.2051 41.7578 22.7363C41.6406 23.2637 41.582 23.9199 41.582 24.7051ZM55.3867 23.4043H53.2715V29H52.3105V23.4043H50.2246V22.5781H55.3867V23.4043ZM60.5547 22.5781V23.4043H57.6367V29H56.6582V22.5781H60.5547Z" fill="#737E84"/>
<circle cx="15" cy="16" r="15" fill="#F2F5F7"/>
<g clip-path="url(#clip0_1035_3565)">
<path fill-rule="evenodd" clip-rule="evenodd" d="M14.9999 8C19.4183 8 22.9999 11.5817 22.9999 15.9999C22.9999 20.4183 19.4182 23.9999 14.9999 23.9999C10.5816 23.9999 7 20.4182 7 15.9999C7 11.5816 10.5817 8 14.9999 8ZM13.9999 21H15.9999V17H18.9999V15H10.9999V17H13.9999V21ZM18.9999 14H10.9999V12H18.9999V14Z" fill="#22232B"/>
</g>
<defs>
<clipPath id="clip0_1035_3565">
<rect width="16" height="16" fill="white" transform="translate(7 8)"/>
</clipPath>
</defs>
</svg>
