<svg width="50" height="40" viewBox="0 0 50 40" fill="none" xmlns="http://www.w3.org/2000/svg">
<g clip-path="url(#clip0_1035_3581)">
<path d="M19.4184 15.3515H19.1676L18.699 17.6953H19.887L19.4184 15.3515ZM20.8461 27.6562L20.9466 28.4601C21.0137 28.9985 21.3715 29.5475 21.9598 29.8217C23.0704 28.5993 22.3984 29.3388 23.9269 27.6562H20.8461ZM23.5376 11.5397C23.4284 10.662 22.6783 10 21.7936 10H15.7578C14.7885 10 14 10.7885 14 11.7578V24.7264C14 25.6957 14.7885 26.4843 15.7578 26.4843C19.2605 26.4843 21.7803 26.4843 24.9981 26.4843C25.169 26.289 25.3123 26.1665 25.3183 25.9115C25.3198 25.8476 23.5455 11.6032 23.5376 11.5397ZM21.1853 21.1994C20.8746 21.2633 20.5598 21.0617 20.4959 20.7398L20.1213 18.8671H18.4646L18.09 20.7398C18.0271 21.0569 17.7215 21.2651 17.4005 21.1994C17.0835 21.1358 16.8775 20.8275 16.941 20.5099L18.1128 14.6506C18.1677 14.377 18.4081 14.1795 18.6873 14.1795H19.8982C20.1773 14.1795 20.4177 14.377 20.4725 14.6506L21.6444 20.5099C21.7081 20.8276 21.502 21.136 21.185 21.1994H21.1853ZM32.2422 13.5545H24.9655L26.4827 25.7295C26.5096 26.2276 26.3735 26.6964 26.0485 27.0634L23.4791 29.9999H32.2424C33.2117 29.9999 34.0001 29.2114 34.0001 28.2421V15.3514C34.0001 14.3821 33.2117 13.5545 32.2424 13.5545H32.2422ZM32.2422 20.039H32.0857C31.7523 21.1086 31.2236 21.9456 30.6741 22.6054C31.1047 22.999 31.5649 23.3218 32.0225 23.6835C32.2748 23.8855 32.316 24.2539 32.1136 24.5069C31.9118 24.7593 31.5419 24.8003 31.2901 24.5979C30.7929 24.2055 30.3262 23.8769 29.8594 23.4486C29.3927 23.8769 28.965 24.2055 28.4678 24.5979C28.216 24.8005 27.846 24.7595 27.6444 24.5069C27.4417 24.2539 27.4829 23.8855 27.7354 23.6835C28.1931 23.3219 28.6143 22.999 29.0446 22.6054C28.4951 21.9457 28.0054 21.1087 27.6721 20.039H27.5156C27.1917 20.039 26.9297 19.777 26.9297 19.453C26.9297 19.1291 27.1916 18.8671 27.5156 18.8671H29.2735V18.281C29.2735 17.9571 29.5354 17.6951 29.8594 17.6951C30.1833 17.6951 30.4454 17.957 30.4454 18.281V18.8671H32.2424C32.5661 18.8671 32.8283 19.129 32.8283 19.453C32.8283 19.7768 32.5662 20.039 32.2424 20.039H32.2422ZM28.8973 20.039C29.1503 20.7187 29.4869 21.2688 29.8593 21.7369C30.2317 21.2688 30.6073 20.7185 30.8603 20.039H28.8973Z" fill="white"/>
</g>
<defs>
<clipPath id="clip0_1035_3581">
<rect width="20" height="20" fill="white" transform="translate(15 10)"/>
</clipPath>
</defs>
</svg>
