<svg width="50" height="40" viewBox="0 0 50 40" fill="none" xmlns="http://www.w3.org/2000/svg">
<g clip-path="url(#clip0_1035_3588)">
<path fill-rule="evenodd" clip-rule="evenodd" d="M15.0001 10.0002H19.0001V14.0002H15.0001V10.0002ZM31.0001 26.0002H35.0001V30.0002H31.0001V26.0002ZM31.0001 18.0001H35.0001V22.0002H31.0001V18.0001ZM31.0001 10.0001H35.0001V14.0001H31.0001V10.0001ZM23 26.0001H27.0001V30.0001H23V26.0001ZM23 18H27.0001V22.0001H23V18ZM23 10H27.0001V14H23V10ZM15 26H19V30H15V26ZM15 17.9999H19V22H15V17.9999Z" fill="white"/>
</g>
<defs>
<clipPath id="clip0_1035_3588">
<rect width="20" height="20" fill="white" transform="translate(15 10)"/>
</clipPath>
</defs>
</svg>
