<svg width="40" height="32" viewBox="0 0 40 32" fill="none" xmlns="http://www.w3.org/2000/svg">
<circle cx="15" cy="16.5" r="14" fill="#F2F5F7" stroke="#51BB76" stroke-width="2"/>
<circle cx="23" cy="4.5" r="4" fill="#51BB76"/>
<g clip-path="url(#clip0_1035_3560)">
<path fill-rule="evenodd" clip-rule="evenodd" d="M7.00172 20.4687C6.98588 20.8657 7.07517 21.1196 7.44312 21.4429C7.73086 21.6957 8.05664 21.7997 8.43205 21.7997H15H21.5679C21.9434 21.7997 22.2691 21.6956 22.5568 21.4429C22.9247 21.1196 23.014 20.8657 22.9982 20.4687C22.9737 19.8512 22.4265 19.5417 22.0481 19.2122C19.9534 17.389 21.0133 15.6935 20.5149 13.1135C20.0374 10.6421 17.7609 9.11754 15 9C12.239 9.11754 9.96247 10.6421 9.48505 13.1135C8.98665 15.6935 10.0465 17.389 7.95181 19.2122C7.57327 19.5417 7.02624 19.8512 7.00172 20.4687ZM15.0169 24.9998C16.4183 24.9998 17.5753 23.9537 17.7498 22.5998H12.2842C12.4587 23.9537 13.6156 24.9998 15.017 24.9998H15.0169Z" fill="#22232B"/>
</g>
<defs>
<clipPath id="clip0_1035_3560">
<rect width="16" height="16" fill="white" transform="translate(7 9)"/>
</clipPath>
</defs>
</svg>
