<svg width="50" height="40" viewBox="0 0 50 40" fill="none" xmlns="http://www.w3.org/2000/svg">
<path d="M22.7149 10.9023C22.6328 10.9022 22.5514 10.9182 22.4755 10.9496C22.3996 10.9809 22.3306 11.0268 22.2724 11.0848L16.0849 17.2723C15.9678 17.3895 15.9019 17.5485 15.9019 17.7142C15.9019 17.8799 15.9678 18.0389 16.0849 18.1561C16.6849 18.7561 17.4249 18.8911 17.9637 18.8911C18.1849 18.8911 18.3824 18.8686 18.5387 18.8423L22.4562 22.7598C22.3531 23.1754 22.2861 23.599 22.2562 24.0261C22.1987 24.9036 22.2962 26.1348 23.1562 26.9948C23.2734 27.112 23.4323 27.1778 23.5981 27.1778C23.7638 27.1778 23.9227 27.112 24.0399 26.9948L27.5762 23.4598L31.5537 27.4373C31.7974 27.6811 33.0774 28.5648 33.3212 28.3211C33.5649 28.0773 32.6812 26.7961 32.4374 26.5536L28.4599 22.5761L31.9949 19.0398C32.1121 18.9226 32.1779 18.7637 32.1779 18.598C32.1779 18.4322 32.1121 18.2733 31.9949 18.1561C31.1349 17.2961 29.9037 17.1973 29.0262 17.2561C28.5991 17.286 28.1754 17.3529 27.7599 17.4561L23.8424 13.5398C23.8751 13.3495 23.8919 13.1567 23.8924 12.9636C23.8924 12.4261 23.7574 11.6861 23.1562 11.0848C23.0391 10.968 22.8804 10.9024 22.7149 10.9023Z" fill="white"/>
</svg>
