<svg width="50" height="40" viewBox="0 0 50 40" fill="none" xmlns="http://www.w3.org/2000/svg">
<g clip-path="url(#clip0_1035_3585)">
<path d="M34.5132 21.3968C34.3085 21.3456 34.104 21.3968 33.925 21.5252C33.2601 22.0902 32.4927 22.5525 31.6489 22.8607C30.8561 23.1689 29.9865 23.323 29.0659 23.323C26.9943 23.323 25.1018 22.4755 23.7464 21.1142C22.3909 19.7531 21.5471 17.8527 21.5471 15.7725C21.5471 14.8993 21.7004 14.0518 21.9562 13.2813C22.2375 12.4595 22.6467 11.7148 23.1837 11.0726C23.414 10.7901 23.3627 10.3792 23.0814 10.1481C22.9024 10.0197 22.6978 9.96832 22.4933 10.0197C20.3195 10.6104 18.427 11.92 17.0715 13.6665C15.7671 15.3871 15 17.5187 15 19.8301C15 22.6295 16.1253 25.172 17.9666 27.021C19.808 28.87 22.3143 30 25.1275 30C27.4803 30 29.6543 29.1782 31.3932 27.8172C33.1579 26.4304 34.4366 24.4529 34.9737 22.1929C35.0759 21.8332 34.8714 21.4738 34.5134 21.3966L34.5132 21.3968Z" fill="white"/>
</g>
<defs>
<clipPath id="clip0_1035_3585">
<rect width="20" height="20" fill="white" transform="translate(15 10)"/>
</clipPath>
</defs>
</svg>
