<svg width="94" height="32" viewBox="0 0 94 32" fill="none" xmlns="http://www.w3.org/2000/svg">
<circle cx="15" cy="16" r="15" fill="#B03273"/>
<path d="M19 21H16.6376L13.0805 15.9316V21H11V11H13.0805V15.8427L16.5973 11H18.8121L15.2349 15.8016L19 21Z" fill="white"/>
<path d="M41.0781 4.43359H42.7129V8.57031C42.7129 8.77344 42.709 8.99805 42.7012 9.24414C42.6973 9.49023 42.6895 9.73242 42.6777 9.9707C42.6699 10.2051 42.6621 10.4102 42.6543 10.5859C42.6465 10.7617 42.6387 10.8789 42.6309 10.9375H42.666L46.6211 4.43359H48.7949V13H47.1777V8.88672C47.1777 8.66797 47.1816 8.42969 47.1895 8.17188C47.1973 7.91406 47.207 7.66406 47.2188 7.42188C47.2344 7.17969 47.248 6.9707 47.2598 6.79492C47.2715 6.61523 47.2793 6.49609 47.2832 6.4375H47.2363L43.2637 13H41.0781V4.43359ZM59.0723 6.44922V13H57.4023V9.7832C57.4023 9.4668 57.4082 9.15625 57.4199 8.85156C57.4316 8.54688 57.4492 8.26562 57.4727 8.00781H57.4375L55.627 13H54.2852L52.4453 7.99609H52.3984C52.4297 8.25781 52.4512 8.53906 52.4629 8.83984C52.4746 9.14062 52.4805 9.4707 52.4805 9.83008V13H50.8164V6.44922H53.3477L54.9766 10.8906L56.6348 6.44922H59.0723ZM61.9492 13H60.0156L61.7793 10.4102C61.5566 10.3164 61.3477 10.1875 61.1523 10.0234C60.957 9.85547 60.7988 9.64453 60.6777 9.39062C60.5566 9.13672 60.4961 8.83203 60.4961 8.47656C60.4961 7.82422 60.7422 7.32422 61.2344 6.97656C61.7305 6.625 62.3691 6.44922 63.1504 6.44922H66.1973V13H64.4102V10.5625H63.4258L61.9492 13ZM62.248 8.48828C62.248 8.76172 62.3555 8.97656 62.5703 9.13281C62.7891 9.28516 63.0703 9.36133 63.4141 9.36133H64.4102V7.70898H63.1855C62.8652 7.70898 62.6289 7.78711 62.4766 7.94336C62.3242 8.0957 62.248 8.27734 62.248 8.48828Z" fill="#22232B"/>
<path d="M45.2676 20.3105V21.3652C46.1738 21.3809 46.8945 21.5293 47.4297 21.8105C47.9648 22.0918 48.3496 22.4688 48.584 22.9414C48.8184 23.4141 48.9355 23.9492 48.9355 24.5469C48.9355 24.9531 48.873 25.3477 48.748 25.7305C48.623 26.1133 48.4199 26.459 48.1387 26.7676C47.8574 27.0723 47.4805 27.3184 47.0078 27.5059C46.5391 27.6895 45.959 27.7871 45.2676 27.7988V29.1172H44.2832V27.7988C43.5762 27.7871 42.9863 27.6855 42.5137 27.4941C42.041 27.3027 41.666 27.0527 41.3887 26.7441C41.1113 26.4355 40.9121 26.0918 40.791 25.7129C40.6738 25.334 40.6152 24.9492 40.6152 24.5586C40.6152 24.125 40.6797 23.7188 40.8086 23.3398C40.9375 22.957 41.1445 22.6211 41.4297 22.332C41.7188 22.0391 42.0977 21.8086 42.5664 21.6406C43.0352 21.4688 43.6074 21.377 44.2832 21.3652V20.3105H45.2676ZM44.2832 22.209C43.6348 22.2246 43.1152 22.3301 42.7246 22.5254C42.3379 22.7168 42.0586 22.9844 41.8867 23.3281C41.7148 23.6719 41.6289 24.0781 41.6289 24.5469C41.6289 25.0391 41.7227 25.4648 41.9102 25.8242C42.1016 26.1797 42.3926 26.457 42.7832 26.6562C43.1777 26.8516 43.6777 26.959 44.2832 26.9785V22.209ZM45.2676 22.209V26.9785C45.8926 26.959 46.4004 26.8477 46.791 26.6445C47.1816 26.4414 47.4688 26.1602 47.6523 25.8008C47.8359 25.4414 47.9277 25.0195 47.9277 24.5352C47.9277 24.0625 47.8418 23.6562 47.6699 23.3164C47.498 22.9727 47.2168 22.707 46.8262 22.5195C46.4395 22.3281 45.9199 22.2246 45.2676 22.209ZM52.9902 22.4727C53.7559 22.4727 54.3242 22.6445 54.6953 22.9883C55.0664 23.332 55.252 23.8809 55.252 24.6348V29H54.543L54.3555 28.0508H54.3086C54.1289 28.2852 53.9414 28.4824 53.7461 28.6426C53.5508 28.7988 53.3242 28.918 53.0664 29C52.8125 29.0781 52.5 29.1172 52.1289 29.1172C51.7383 29.1172 51.3906 29.0488 51.0859 28.9121C50.7852 28.7754 50.5469 28.5684 50.3711 28.291C50.1992 28.0137 50.1133 27.6621 50.1133 27.2363C50.1133 26.5957 50.3672 26.1035 50.875 25.7598C51.3828 25.416 52.1562 25.2285 53.1953 25.1973L54.3027 25.1504V24.7578C54.3027 24.2031 54.1836 23.8145 53.9453 23.5918C53.707 23.3691 53.3711 23.2578 52.9375 23.2578C52.6016 23.2578 52.2812 23.3066 51.9766 23.4043C51.6719 23.502 51.3828 23.6172 51.1094 23.75L50.8105 23.0117C51.0996 22.8633 51.4316 22.7363 51.8066 22.6309C52.1816 22.5254 52.5762 22.4727 52.9902 22.4727ZM54.291 25.8359L53.3125 25.877C52.5117 25.9082 51.9473 26.0391 51.6191 26.2695C51.291 26.5 51.127 26.8262 51.127 27.248C51.127 27.6152 51.2383 27.8867 51.4609 28.0625C51.6836 28.2383 51.9785 28.3262 52.3457 28.3262C52.916 28.3262 53.3828 28.168 53.7461 27.8516C54.1094 27.5352 54.291 27.0605 54.291 26.4277V25.8359ZM64.0352 22.5781V29H63.1562V24.8164C63.1562 24.6445 63.1602 24.4707 63.168 24.2949C63.1797 24.1152 63.1934 23.9355 63.209 23.7559H63.1738L61.041 29H60.2148L58.1348 23.7559H58.0996C58.1113 23.9355 58.1191 24.1152 58.123 24.2949C58.1309 24.4707 58.1348 24.6562 58.1348 24.8516V29H57.25V22.5781H58.5566L60.6309 27.8281L62.7344 22.5781H64.0352ZM66.9824 22.5781V26.6152C66.9824 26.6934 66.9805 26.7949 66.9766 26.9199C66.9727 27.041 66.9668 27.1719 66.959 27.3125C66.9512 27.4492 66.9434 27.582 66.9355 27.7109C66.9316 27.8359 66.9258 27.9395 66.918 28.0215L70.4219 22.5781H71.6172V29H70.709V25.0625C70.709 24.9375 70.7109 24.7773 70.7148 24.582C70.7188 24.3867 70.7246 24.1953 70.7324 24.0078C70.7402 23.8164 70.7461 23.668 70.75 23.5625L67.2578 29H66.0566V22.5781H66.9824ZM78.502 29H77.5117V23.3926H75.5605C75.4824 24.4043 75.3828 25.2715 75.2617 25.9941C75.1445 26.7129 74.9961 27.3008 74.8164 27.7578C74.6406 28.2109 74.4258 28.5449 74.1719 28.7598C73.9219 28.9707 73.623 29.0762 73.2754 29.0762C73.1699 29.0762 73.0703 29.0703 72.9766 29.0586C72.8828 29.0469 72.8027 29.0273 72.7363 29V28.2617C72.7871 28.2773 72.8398 28.2891 72.8945 28.2969C72.9531 28.3047 73.0137 28.3086 73.0762 28.3086C73.252 28.3086 73.4121 28.2363 73.5566 28.0918C73.7051 27.9434 73.8379 27.7207 73.9551 27.4238C74.0762 27.127 74.1836 26.752 74.2773 26.2988C74.3711 25.8418 74.4531 25.3047 74.5234 24.6875C74.5977 24.0664 74.6621 23.3633 74.7168 22.5781H78.502V29ZM81.4785 22.5781V26.6152C81.4785 26.6934 81.4766 26.7949 81.4727 26.9199C81.4688 27.041 81.4629 27.1719 81.4551 27.3125C81.4473 27.4492 81.4395 27.582 81.4316 27.7109C81.4277 27.8359 81.4219 27.9395 81.4141 28.0215L84.918 22.5781H86.1133V29H85.2051V25.0625C85.2051 24.9375 85.207 24.7773 85.2109 24.582C85.2148 24.3867 85.2207 24.1953 85.2285 24.0078C85.2363 23.8164 85.2422 23.668 85.2461 23.5625L81.7539 29H80.5527V22.5781H81.4785ZM88.4922 29H87.3555L89.207 26.293C88.9375 26.2344 88.6875 26.1348 88.457 25.9941C88.2266 25.8496 88.0391 25.6523 87.8945 25.4023C87.7539 25.1523 87.6836 24.8418 87.6836 24.4707C87.6836 23.8535 87.8887 23.3848 88.2988 23.0645C88.7129 22.7402 89.2578 22.5781 89.9336 22.5781H92.7754V29H91.8027V26.4219H90.1738L88.4922 29ZM88.627 24.4766C88.627 24.8594 88.7637 25.1445 89.0371 25.332C89.3105 25.5156 89.7012 25.6074 90.209 25.6074H91.8027V23.3926H90.0391C89.5391 23.3926 89.1777 23.4941 88.9551 23.6973C88.7363 23.8965 88.627 24.1562 88.627 24.4766Z" fill="#737E84"/>
</svg>
